G04 ================== begin FILE IDENTIFICATION RECORD ==================*
G04 Layout Name:  C:/USERS/USER/DESKTOP/WORK/7.31/allegro/7_31EX.brd*
G04 Film Name:    Design*
G04 File Format:  Gerber RS274X*
G04 File Origin:  Cadence Allegro 17.2-P019*
G04 Origin Date:  Wed Jul 31 12:24:20 2019*
G04 *
G04 Layer:  VIA CLASS/BOTTOM*
G04 Layer:  VIA CLASS/TOP*
G04 Layer:  ROUTE KEEPOUT/ALL*
G04 Layer:  ROUTE KEEPIN/ALL*
G04 Layer:  REF DES/SILKSCREEN_TOP*
G04 Layer:  REF DES/SILKSCREEN_BOTTOM*
G04 Layer:  PIN/BOTTOM*
G04 Layer:  PIN/TOP*
G04 Layer:  PACKAGE KEEPIN/ALL*
G04 Layer:  PACKAGE GEOMETRY/PIN_NUMBER*
G04 Layer:  PACKAGE GEOMETRY/SILKSCREEN_TOP*
G04 Layer:  PACKAGE GEOMETRY/SILKSCREEN_BOTTOM*
G04 Layer:  PACKAGE GEOMETRY/SOLDERMASK_TOP*
G04 Layer:  PACKAGE GEOMETRY/SOLDERMASK_BOTTOM*
G04 Layer:  PACKAGE GEOMETRY/PASTEMASK_TOP*
G04 Layer:  PACKAGE GEOMETRY/PASTEMASK_BOTTOM*
G04 Layer:  ETCH/BOTTOM*
G04 Layer:  ETCH/TOP*
G04 Layer:  BOARD GEOMETRY/OUTLINE*
G04 Layer:  BOARD GEOMETRY/SILKSCREEN_TOP*
G04 Layer:  BOARD GEOMETRY/SILKSCREEN_BOTTOM*
G04 Layer:  BOARD GEOMETRY/SOLDERMASK_TOP*
G04 Layer:  BOARD GEOMETRY/SOLDERMASK_BOTTOM*
G04 Layer:  BOARD GEOMETRY/DESIGN_OUTLINE*
G04 *
G04 Offset:    (0.0000 0.0000)*
G04 Mirror:    No*
G04 Mode:      Positive*
G04 Rotation:  0*
G04 FullContactRelief:  No*
G04 UndefLineWidth:     0.0000*
G04 ================== end FILE IDENTIFICATION RECORD ====================*
%FSLAX25Y25*MOMM*%
%IR0*IPPOS*OFA0.00000B0.00000*MIA0B0*SFA1.00000B1.00000*%
%ADD10C,.635*%
%ADD12C,1.524*%
%ADD11C,1.651*%
%ADD13R,1.524X1.524*%
%ADD14C,.5*%
%ADD15C,1.*%
%ADD17C,2.0324*%
%ADD16C,2.1594*%
G75*
%LPD*%
G75*
G36*
G01X754020Y500000D02*
Y754020D01*
X500000D01*
Y2890380D01*
G03Y3093620I0J101620D01*
G01Y3144380D01*
G03X599300Y3267590I0J101620D01*
G02X616410Y3276930I9929J2153D01*
G01X700830Y3192510D01*
Y2710810D01*
X845010Y2566630D01*
X3642710D01*
X3730930Y2478410D01*
G02X3721590Y2461300I-7187J-7181D01*
G03X3799300Y2383590I-21590J-99300D01*
G02X3816410Y2392930I9929J2153D01*
G01X3852490Y2356850D01*
X3852620Y2354950D01*
G03X3946950Y2260620I101380J7050D01*
G01X3948850Y2260490D01*
X4074360Y2134980D01*
X6733640D01*
X6959150Y2360490D01*
X6961050Y2360620D01*
G03X7029420Y2530110I-7048J101378D01*
G01Y3322760D01*
X7105150Y3398490D01*
X7107050Y3398620D01*
G03Y3601380I-7050J101380D01*
G01X7105150Y3601510D01*
X6997380Y3709280D01*
Y3945180D01*
G02X7015940Y3950890I10158J1D01*
G03X7168110Y3932580I84058J57108D01*
G01X7220360D01*
X7226550Y3926390D01*
X7488760D01*
X7544580Y3870570D01*
Y2547150D01*
G02X7527840Y2539410I-10159J-1D01*
G03Y2384590I-65840J-77410D01*
G02X7544580Y2376850I6581J-7739D01*
G01Y1889240D01*
X7456850Y1801510D01*
X7454950Y1801380D01*
G03X7417580Y1608600I7046J-101378D01*
G01Y1591740D01*
X7361760Y1535920D01*
X4632740D01*
X4563510Y1605150D01*
X4563380Y1607050D01*
G03X4454950Y1498620I-101380J-7050D01*
G01X4456850Y1498490D01*
X4570260Y1385080D01*
X7424240D01*
X7568420Y1529260D01*
Y1699760D01*
X7695420Y1826760D01*
Y3933050D01*
X7551240Y4077230D01*
X7289030D01*
X7282840Y4083420D01*
X7168110D01*
G03X7015940Y4065110I-68112J-75418D01*
G02X6997380Y4070820I-8402J5709D01*
G01Y4074720D01*
X7645590Y4722930D01*
G02X7662700Y4713590I7181J-7187D01*
G03X7740410Y4791300I99300J-21590D01*
G02X7731070Y4808410I-2153J9929D01*
G01X7767150Y4844490D01*
X7769050Y4844620D01*
G03X7863380Y4938950I-7050J101380D01*
G01X7863510Y4940850D01*
X8203420Y5280760D01*
Y5373290D01*
X8059240Y5517470D01*
X8009370D01*
G02X8001340Y5533850I-1J10158D01*
G03X7818510Y5553600I-85336J66148D01*
G02X7809340Y5539070I-9172J-4370D01*
G01X7006660D01*
G02X6997490Y5553600I2J10160D01*
G03X6804530Y5650420I-97489J46399D01*
G01X6669840D01*
X6653840Y5666420D01*
X6595470D01*
G03Y5565580I-95470J-50420D01*
G01X6612080D01*
X6628080Y5549580D01*
X6804530D01*
G03X6886440Y5492880I95478J50414D01*
G02X6892350Y5475620I-1274J-10078D01*
G01X6538150Y5121420D01*
X4730110D01*
G03Y4970580I-68110J-75420D01*
G01X6600630D01*
X6881040Y5250990D01*
G02X6898380Y5243800I7180J-7188D01*
G01Y5123800D01*
G03X6923800Y5098380I25420J0D01*
G01X7076200D01*
G03X7101620Y5123800I0J25420D01*
G01Y5276200D01*
G03X7076200Y5301620I-25420J0D01*
G01X6956200D01*
G02X6949010Y5318960I-2J10160D01*
G01X7018280Y5388230D01*
X7797720D01*
X7819320Y5366630D01*
X7996760D01*
X8036370Y5327020D01*
X7878410Y5169070D01*
G02X7861300Y5178410I-7181J7187D01*
G03X7783590Y5100700I-99300J21590D01*
G02X7792930Y5083590I2153J-9929D01*
G01X7756850Y5047510D01*
X7754950Y5047380D01*
G03X7660620Y4953050I7050J-101380D01*
G01X7660490Y4951150D01*
X7116410Y4407070D01*
G02X7099300Y4416410I-7181J7187D01*
G03X6931890Y4513420I-99300J21592D01*
G01X6692760D01*
X6509260Y4329920D01*
X4603240D01*
X4319740Y4613420D01*
X3968110D01*
G03Y4462580I-68110J-75420D01*
G01X4257260D01*
X4540760Y4179080D01*
X6571740D01*
X6755240Y4362580D01*
X6931890D01*
G03X7021590Y4338700I68107J75420D01*
G02X7030930Y4321590I2153J-9929D01*
G01X6846540Y4137200D01*
Y3646800D01*
X6993340Y3500000D01*
X6878580Y3385240D01*
Y2530110D01*
G03X6852620Y2469050I75417J-68113D01*
G01X6852490Y2467150D01*
X6816410Y2431070D01*
G02X6799300Y2440410I-7181J7187D01*
G03X6721590Y2362700I-99300J21590D01*
G02X6730930Y2345590I2153J-9929D01*
G01X6671160Y2285820D01*
X4552200D01*
G02X4544000Y2301980I-1J10160D01*
G03X4380000I-82000J60020D01*
G02X4371800Y2285820I-8199J-6000D01*
G01X4298200D01*
G02X4290000Y2301980I-1J10160D01*
G03X4108700Y2340410I-82000J60021D01*
G02X4091590Y2331070I-9929J-2153D01*
G01X4055510Y2367150D01*
X4055380Y2369050D01*
G03X3961050Y2463380I-101380J-7050D01*
G01X3959150Y2463510D01*
X3705190Y2717470D01*
X3193370D01*
G02X3185340Y2733850I-1J10158D01*
G03X3014660I-85340J66150D01*
G02X3006630Y2717470I-8029J-6222D01*
G01X907490D01*
X851670Y2773290D01*
Y3254990D01*
X601510Y3505150D01*
X601380Y3507050D01*
G03X500000Y3601620I-101380J-7055D01*
G01Y6245980D01*
X754020D01*
Y6500000D01*
X9245980D01*
Y6245980D01*
X9500000D01*
Y3601620D01*
G03Y3398380I0J-101620D01*
G01Y3347620D01*
G03Y3144380I0J-101620D01*
G01Y754020D01*
X9245980D01*
Y500000D01*
X754020D01*
G37*
%LPC*%
G75*
G36*
G01X6598380Y1623800D02*
Y1776200D01*
G02X6623800Y1801620I25420J0D01*
G01X6776200D01*
G02X6801620Y1776200I0J-25420D01*
G01Y1623800D01*
G02X6776200Y1598380I-25420J0D01*
G01X6623800D01*
G02X6598380Y1623800I0J25420D01*
G37*
G36*
G01X3798380Y5223800D02*
Y5376200D01*
G02X3823800Y5401620I25420J0D01*
G01X3976200D01*
G02X4001620Y5376200I0J-25420D01*
G01Y5223800D01*
G02X3976200Y5198380I-25420J0D01*
G01X3823800D01*
G02X3798380Y5223800I0J25420D01*
G37*
G36*
G01X3598380Y1523800D02*
Y1676200D01*
G02X3623800Y1701620I25420J0D01*
G01X3776200D01*
G02X3801620Y1676200I0J-25420D01*
G01Y1523800D01*
G02X3776200Y1498380I-25420J0D01*
G01X3623800D01*
G02X3598380Y1523800I0J25420D01*
G37*
G36*
G01X2588230Y5850420D02*
X3004530D01*
G02Y5749580I95470J-50420D01*
G01X2588230D01*
G02Y5850420I-88230J50420D01*
G37*
G36*
G01X2158880Y5704420D02*
X2219230Y5644070D01*
X2222010Y5644750D01*
G02X2147250Y5569990I23990J-98750D01*
G01X2147930Y5572770D01*
X2117120Y5603580D01*
X1395470D01*
G02Y5704420I-95470J50420D01*
G01X2158880D01*
G37*
G36*
G01X2068110Y4896800D02*
X1866880Y4695580D01*
X1595470D01*
G02Y4796420I-95470J50420D01*
G01X1825120D01*
X1996800Y4968110D01*
X1996010Y4970970D01*
G02X2070970Y4896010I103990J29030D01*
G01X2068110Y4896800D01*
G37*
G36*
G01X6028880Y4650420D02*
X6404530D01*
G02Y4549580I95470J-50420D01*
G01X5987120D01*
X5934770Y4601930D01*
X5931990Y4601250D01*
G02X6006750Y4676010I-23990J98750D01*
G01X6006070Y4673230D01*
X6028880Y4650420D01*
G37*
G36*
G01X2627620Y5093080D02*
X2526770Y5193930D01*
X2523990Y5193250D01*
G02X2598750Y5268010I-23990J98750D01*
G01X2598070Y5265230D01*
X2669380Y5193920D01*
X3513030D01*
X3767820Y4939130D01*
X3796780D01*
X3826400Y4968750D01*
G03X3826480Y4975850I-3596J3591D01*
G02X3981460Y4985250I73520J70151D01*
G03X3989610Y4969020I8148J-6070D01*
G01X4556280D01*
X4635230Y4890070D01*
X4638010Y4890750D01*
G02X4760750Y4768010I23990J-98750D01*
G01X4760070Y4765230D01*
X4774880Y4750420D01*
X5311770D01*
G02X5498750Y4676010I88232J-50417D01*
G01X5498070Y4673230D01*
X5627230Y4544070D01*
X5630010Y4544750D01*
G02X5555250Y4469990I23990J-98750D01*
G01X5555930Y4472770D01*
X5426770Y4601930D01*
X5423990Y4601250D01*
G02X5311770Y4649580I-23989J98749D01*
G01X4733120D01*
X4688770Y4693930D01*
X4685990Y4693250D01*
G02X4563250Y4815990I-23990J98750D01*
G01X4563930Y4818770D01*
X4514520Y4868180D01*
X3990200D01*
G03X3982000Y4852020I-1J-10160D01*
G02X3803830Y4824850I-82004J-60019D01*
G03X3794220Y4838290I-9613J3282D01*
G01X3726060D01*
X3471270Y5093080D01*
X2884140D01*
G03X2876900Y5075790I-4J-10159D01*
G02X2704530Y4949580I-76896J-75791D01*
G01X2374880D01*
X2203200Y4777890D01*
X2203990Y4775030D01*
G02X2129030Y4849990I-103990J-29030D01*
G01X2131890Y4849200D01*
X2333120Y5050420D01*
X2704530D01*
G02X2723100Y5075790I95480J-50407D01*
G03X2715860Y5093080I-7236J7131D01*
G01X2627620D01*
G37*
G36*
G01X5596800Y3031890D02*
X4757140Y3871560D01*
X4673140D01*
X4631890Y3912800D01*
X4629030Y3912010D01*
G02X4703990Y3986970I-29030J103990D01*
G01X4703200Y3984110D01*
X4714900Y3972400D01*
X4798900D01*
X5668110Y3103200D01*
X5670970Y3103990D01*
G02X5596010Y3029030I29030J-103990D01*
G01X5596800Y3031890D01*
G37*
G54D17*
X4208000Y1600000D03*
X3954000D03*
X4662000Y4538000D03*
Y5300000D03*
X7208000Y1700000D03*
X6954000D03*
X7208000Y2462000D03*
X7000000Y4692000D03*
Y4946000D03*
X7354000Y3754000D03*
X7762000Y4438000D03*
G54D16*
X1100000Y3000000D03*
Y4016000D03*
X1500000Y3000000D03*
X1900000D03*
X1500000Y4016000D03*
X1900000D03*
X1500000Y5000000D03*
X1300000Y5400000D03*
X2600000Y3400000D03*
Y4416000D03*
X3302000Y4508500D03*
X2800000Y4746000D03*
X3302000Y5524500D03*
X4116000Y2800000D03*
X3600000Y3400000D03*
Y4416000D03*
X4116000Y5800000D03*
X4600000Y3000000D03*
X6716000D03*
%LPD*%
G75*
G36*
G01X246000Y246000D02*
Y754000D01*
X754000D01*
Y246000D01*
X246000D01*
G37*
G36*
G01Y6246000D02*
Y6754000D01*
X754000D01*
Y6246000D01*
X246000D01*
G37*
G36*
G01X9246000Y246000D02*
Y754000D01*
X9754000D01*
Y246000D01*
X9246000D01*
G37*
G36*
G01Y6246000D02*
Y6754000D01*
X9754000D01*
Y6246000D01*
X9246000D01*
G37*
G54D10*
X500000Y500000D03*
D03*
Y6500000D03*
D03*
X9500000Y500000D03*
D03*
Y6500000D03*
D03*
G54D11*
X1100000Y3000000D03*
D03*
Y4016000D03*
D03*
X1500000Y3000000D03*
D03*
X1900000D03*
D03*
X1500000Y4016000D03*
D03*
X1900000D03*
D03*
X1500000Y4746000D03*
D03*
Y5000000D03*
D03*
X1300000Y5654000D03*
D03*
Y5400000D03*
D03*
X2600000Y3400000D03*
D03*
Y4416000D03*
D03*
X2100000Y4746000D03*
D03*
Y5000000D03*
D03*
X3100000Y2800000D03*
D03*
X3302000Y4508500D03*
D03*
X2800000Y4746000D03*
D03*
Y5000000D03*
D03*
X3302000Y5524500D03*
D03*
X3100000Y5800000D03*
D03*
X4116000Y2800000D03*
D03*
X3600000Y3400000D03*
D03*
Y4416000D03*
D03*
X4116000Y5800000D03*
D03*
X4600000Y3000000D03*
D03*
Y4016000D03*
D03*
X5700000Y3000000D03*
D03*
X6500000Y4600000D03*
D03*
Y5616000D03*
D03*
X6716000Y3000000D03*
D03*
X6900000Y5600000D03*
D03*
X7916000D03*
D03*
G54D12*
X500000Y2992000D03*
D03*
Y3246000D03*
D03*
Y3500000D03*
D03*
X2500000Y5292000D03*
D03*
X2246000Y5546000D03*
D03*
X2500000Y5800000D03*
D03*
X4208000Y1600000D03*
D03*
X3954000D03*
D03*
X4208000Y2362000D03*
D03*
X3954000D03*
D03*
X3700000D03*
D03*
X3900000Y4538000D03*
D03*
Y4792000D03*
D03*
Y5046000D03*
D03*
X4462000Y1600000D03*
D03*
Y2362000D03*
D03*
X4662000Y4538000D03*
D03*
Y4792000D03*
D03*
Y5046000D03*
D03*
Y5300000D03*
D03*
X5654000Y4446000D03*
D03*
X5400000Y4700000D03*
D03*
X5908000D03*
D03*
X7208000Y1700000D03*
D03*
X6954000D03*
D03*
X7208000Y2462000D03*
D03*
X6954000D03*
D03*
X6700000D03*
D03*
X7100000Y4008000D03*
D03*
Y3500000D03*
D03*
X7000000Y4438000D03*
D03*
Y4692000D03*
D03*
Y4946000D03*
D03*
X7462000Y1700000D03*
D03*
Y2462000D03*
D03*
X7354000Y3754000D03*
D03*
X7762000Y4438000D03*
D03*
Y4692000D03*
D03*
Y4946000D03*
D03*
Y5200000D03*
D03*
X9500000Y3246000D03*
D03*
Y3500000D03*
D03*
G54D13*
X3700000Y1600000D03*
D03*
X3900000Y5300000D03*
D03*
X6700000Y1700000D03*
D03*
X7000000Y5200000D03*
D03*
G54D14*
G01X1100000Y4016000D02*
X1185040Y4101040D01*
Y4104700D01*
X1329750Y4249410D01*
Y4829750D01*
X1500000Y5000000D01*
G01Y4746000D02*
Y4016000D01*
G01X2100000Y5000000D02*
X1846000Y4746000D01*
X1500000D01*
G01X1300000Y5654000D02*
X2138000D01*
X2246000Y5546000D01*
G01X1300000Y5400000D02*
Y5200000D01*
X1500000Y5000000D01*
G01X2100000Y4746000D02*
Y4625740D01*
X2095840Y4621580D01*
Y4066000D01*
X2045840Y4016000D01*
X1900000D01*
G01X2100000Y4746000D02*
X2354000Y5000000D01*
X2800000D01*
G01X2600000Y4416000D02*
X2800000Y4616000D01*
Y4746000D01*
G01X2246000Y5546000D02*
X2500000Y5292000D01*
G01D02*
X2648500Y5143500D01*
X3492150D01*
X3746940Y4888710D01*
X3817660D01*
X3847550Y4918600D01*
X4535400D01*
X4662000Y4792000D01*
G01X2500000Y5800000D02*
X3100000D01*
G01X3954000Y1600000D02*
Y1383500D01*
X3904000Y1333500D01*
X3542500D01*
X3492500Y1383500D01*
Y2407500D01*
X3100000Y2800000D01*
G01X3232950Y2932950D02*
X3100000Y2800000D01*
G01X7762000Y4692000D02*
X7628000Y4826000D01*
X7059050D01*
X7052450Y4819400D01*
X6914900D01*
X6477000Y4381500D01*
Y4318000D01*
X5969000Y3810000D01*
X4889500D01*
X3879500Y2800000D01*
X3100000D01*
G01X3302000Y4508500D02*
X3037500D01*
X2800000Y4746000D01*
G01X3900000Y5046000D02*
X3980140D01*
X4001460Y5024680D01*
Y4953960D01*
X3966100Y4918600D01*
X3780900D01*
X3302000Y5397500D01*
Y5524500D01*
G01X4116000Y2800000D02*
Y2454000D01*
X4208000Y2362000D01*
G01X4600000Y3000000D02*
X4316000D01*
X4116000Y2800000D01*
G01X3600000Y4416000D02*
X3745000Y4561000D01*
Y4637000D01*
X3900000Y4792000D01*
G01X4116000Y5800000D02*
X3746500Y5430500D01*
Y5085600D01*
X3786100Y5046000D01*
X3900000D01*
G01X4600000Y4016000D02*
X4694020Y3921980D01*
X4778020D01*
X5700000Y3000000D01*
G01X5400000Y4700000D02*
X4754000D01*
X4662000Y4792000D01*
G01X5700000Y3000000D02*
X5794020Y2905980D01*
Y2859980D01*
X6954000Y1700000D01*
G01X5654000Y4446000D02*
X5400000Y4700000D01*
G01X6500000Y4600000D02*
X6008000D01*
X5908000Y4700000D01*
G01X6716000Y3000000D02*
X7118480Y2597520D01*
Y2551520D01*
X7208000Y2462000D01*
G01X6921490Y3111500D02*
X6900040Y3132950D01*
G01X6716000Y3000000D02*
X6855180D01*
X7188180Y2667000D01*
X9271000D01*
X9373400Y2769400D01*
Y3373400D01*
X9500000Y3500000D01*
G01X7354000Y3754000D02*
X7226600Y3881400D01*
Y4060450D01*
X7175500Y4111550D01*
Y4516500D01*
X7000000Y4692000D01*
G01X6900000Y5600000D02*
Y5479740D01*
X6858000Y5437740D01*
Y5088000D01*
X7000000Y4946000D01*
G01X6900000Y5600000D02*
X6648960D01*
X6632960Y5616000D01*
X6500000D01*
G01X7620000Y3161500D02*
X7570000Y3111500D01*
G01X7762000Y4692000D02*
X7712000D01*
G01X7916000Y5600000D02*
Y4846000D01*
X7762000Y4692000D01*
G54D15*
G01X1100000Y3000000D02*
X894000Y2794000D01*
X483590D01*
X348400Y2929190D01*
Y3094400D01*
X500000Y3246000D01*
G01X3954000Y2362000D02*
X3673950Y2642050D01*
X876250D01*
X776250Y2742050D01*
Y3223750D01*
X500000Y3500000D01*
G01Y2992000D02*
X1065950Y3557950D01*
X2965340D01*
X3792800Y4385410D01*
Y4430800D01*
X3900000Y4538000D01*
G01X1100000Y2886950D02*
Y3000000D01*
G01D02*
Y3113050D01*
G01X986950Y3000000D02*
X1100000D01*
G01D02*
X1213050D01*
G01X1900000Y2886950D02*
Y3000000D01*
G01D02*
Y3113050D01*
G01X1786950Y3000000D02*
X1900000D01*
G01D02*
X2013050D01*
G01X1500000Y2886950D02*
Y3000000D01*
G01D02*
Y3113050D01*
G01X1386950Y3000000D02*
X1500000D01*
G01D02*
X1613050D01*
G01X2600000Y3286950D02*
Y3400000D01*
G01D02*
Y3513050D01*
G01X2486950Y3400000D02*
X2600000D01*
G01D02*
X2713050D01*
G01X6954000Y2462000D02*
X6702400Y2210400D01*
X4105600D01*
X3954000Y2362000D01*
G01X3600000Y3286950D02*
Y3400000D01*
G01D02*
Y3513050D01*
G01X3486950Y3400000D02*
X3600000D01*
G01D02*
X3713050D01*
G01X7000000Y4438000D02*
X6724000D01*
X6540500Y4254500D01*
X4572000D01*
X4288500Y4538000D01*
X3900000D01*
G01X7462000Y1700000D02*
X7493000Y1669000D01*
Y1560500D01*
X7393000Y1460500D01*
X4601500D01*
X4462000Y1600000D01*
G01X4208000Y1493300D02*
Y1600000D01*
G01D02*
Y1706700D01*
G01X4662000Y5046000D02*
X6569390D01*
X6987040Y5463650D01*
X7828960D01*
X7850560Y5442050D01*
X8028000D01*
X8128000Y5342050D01*
Y5312000D01*
X7762000Y4946000D01*
G01X7208000Y1593300D02*
Y1700000D01*
G01D02*
Y1806700D01*
G01X6954000Y2462000D02*
Y3354000D01*
X7100000Y3500000D01*
G01X7762000Y4946000D02*
X6921960Y4105960D01*
Y3678040D01*
X7100000Y3500000D01*
G01Y4008000D02*
X7000000Y4108000D01*
Y4438000D01*
G01X7100000Y4008000D02*
X7251600D01*
X7257790Y4001810D01*
X7520000D01*
X7620000Y3901810D01*
Y1858000D01*
X7462000Y1700000D01*
G01X9500000Y3139300D02*
Y3246000D01*
G01X9393300D02*
X9500000D01*
M02*
