G04 ================== begin FILE IDENTIFICATION RECORD ==================*
G04 Layout Name:  C:/USERS/USER/DESKTOP/WORK/7.31/allegro/7_31EX.brd*
G04 Film Name:    SilkT*
G04 File Format:  Gerber RS274X*
G04 File Origin:  Cadence Allegro 17.2-P019*
G04 Origin Date:  Wed Jul 31 12:24:20 2019*
G04 *
G04 Layer:  REF DES/SILKSCREEN_TOP*
G04 Layer:  PACKAGE GEOMETRY/SILKSCREEN_TOP*
G04 Layer:  BOARD GEOMETRY/SILKSCREEN_TOP*
G04 *
G04 Offset:    (0.0000 0.0000)*
G04 Mirror:    No*
G04 Mode:      Positive*
G04 Rotation:  0*
G04 FullContactRelief:  No*
G04 UndefLineWidth:     0.2000*
G04 ================== end FILE IDENTIFICATION RECORD ====================*
%FSLAX25Y25*MOMM*%
%IR0*IPPOS*OFA0.00000B0.00000*MIA0B0*SFA1.00000B1.00000*%
%ADD10C,.2*%
G75*
%LPD*%
G75*
G54D10*
G01X973000Y3152400D02*
Y3863600D01*
X1227000D01*
Y3152400D01*
X973000D01*
G01X373000Y3627000D02*
X627000D01*
Y2865000D01*
X373000D01*
Y3627000D01*
G01X549160Y3701750D02*
X554030Y3693870D01*
X559870Y3688620D01*
X566680Y3686000D01*
X574470Y3688620D01*
X580310Y3693870D01*
X586160Y3701750D01*
X588100Y3712250D01*
Y3764740D01*
G01X647370Y3686000D02*
Y3764740D01*
X635690Y3748990D01*
G01Y3686000D02*
X659050D01*
G01X1373000Y3152400D02*
Y3863600D01*
X1627000D01*
Y3152400D01*
X1373000D01*
G01X1773000D02*
Y3863600D01*
X2027000D01*
Y3152400D01*
X1773000D01*
G01X1649440Y3622300D02*
Y3701040D01*
X1673780D01*
X1681570Y3697100D01*
X1686440Y3691850D01*
X1688380Y3681350D01*
X1686440Y3670860D01*
X1680590Y3664300D01*
X1673780Y3660360D01*
X1649440D01*
G01X1673780D02*
X1688380Y3622300D01*
G01X1729150Y3655110D02*
X1735970Y3664300D01*
X1741810Y3669540D01*
X1749600Y3672170D01*
X1756410Y3669540D01*
X1761280Y3664300D01*
X1765180Y3656420D01*
X1766150Y3647230D01*
X1765180Y3639360D01*
X1761280Y3631480D01*
X1755440Y3624920D01*
X1748620Y3622300D01*
X1740830Y3624920D01*
X1734020Y3632800D01*
X1730120Y3644610D01*
X1729150Y3657730D01*
X1731100Y3674790D01*
X1734020Y3683980D01*
X1738890Y3693170D01*
X1745700Y3699730D01*
X1752520Y3701040D01*
X1759330Y3698420D01*
X1764200Y3691850D01*
G01X1249440Y3622300D02*
Y3701040D01*
X1273780D01*
X1281570Y3697100D01*
X1286440Y3691850D01*
X1288380Y3681350D01*
X1286440Y3670860D01*
X1280590Y3664300D01*
X1273780Y3660360D01*
X1249440D01*
G01X1273780D02*
X1288380Y3622300D01*
G01X1326230Y3634110D02*
X1332070Y3627550D01*
X1338890Y3623610D01*
X1347650Y3622300D01*
X1356410Y3624920D01*
X1363230Y3630170D01*
X1368100Y3639360D01*
X1369070Y3649860D01*
X1367120Y3660360D01*
X1362250Y3666920D01*
X1355440Y3672170D01*
X1348620Y3673480D01*
X1341810Y3672170D01*
X1333050Y3666920D01*
X1335970Y3701040D01*
X1362250D01*
G01X1627000Y5127000D02*
Y4619000D01*
X1373000D01*
Y5127000D01*
X1627000D01*
G01X1685120Y5259920D02*
X1675470Y5266270D01*
X1664210Y5270500D01*
X1651340D01*
X1636860Y5264150D01*
X1625600Y5253570D01*
X1617560Y5240870D01*
X1611120Y5219700D01*
X1609510Y5200650D01*
X1612730Y5181600D01*
X1617560Y5168900D01*
X1627210Y5156200D01*
X1638470Y5147730D01*
X1649730Y5143500D01*
X1660990D01*
X1672250Y5147730D01*
X1681900Y5154080D01*
X1689950Y5162550D01*
G01X1748700Y5249330D02*
X1758360Y5262030D01*
X1769620Y5268380D01*
X1782490Y5270500D01*
X1798570Y5266270D01*
X1809840Y5255680D01*
X1813050Y5242990D01*
X1811440Y5230280D01*
X1805010Y5219700D01*
X1772840Y5198530D01*
X1758360Y5183720D01*
X1748700Y5162550D01*
X1745490Y5143500D01*
X1813050D01*
G01X1173000Y5273000D02*
Y5781000D01*
X1427000D01*
Y5273000D01*
X1173000D01*
G01X1550020Y5836460D02*
X1540370Y5842810D01*
X1529110Y5847040D01*
X1516240D01*
X1501760Y5840690D01*
X1490500Y5830110D01*
X1482460Y5817410D01*
X1476020Y5796240D01*
X1474410Y5777190D01*
X1477630Y5758140D01*
X1482460Y5745440D01*
X1492110Y5732740D01*
X1503370Y5724270D01*
X1514630Y5720040D01*
X1525890D01*
X1537150Y5724270D01*
X1546800Y5730620D01*
X1554850Y5739090D01*
G01X1644170Y5720040D02*
Y5847040D01*
X1624870Y5821640D01*
G01Y5720040D02*
X1663470D01*
G01X2473000Y3552400D02*
Y4263600D01*
X2727000D01*
Y3552400D01*
X2473000D01*
G01X2049440Y3622300D02*
Y3701040D01*
X2073780D01*
X2081570Y3697100D01*
X2086440Y3691850D01*
X2088380Y3681350D01*
X2086440Y3670860D01*
X2080590Y3664300D01*
X2073780Y3660360D01*
X2049440D01*
G01X2073780D02*
X2088380Y3622300D01*
G01X2145700D02*
X2147650Y3639360D01*
X2150570Y3653790D01*
X2154470Y3666920D01*
X2159330Y3681350D01*
X2167120Y3701040D01*
X2128180D01*
G01X2227000Y5127000D02*
Y4619000D01*
X1973000D01*
Y5127000D01*
X2227000D01*
G01X2119000Y5228500D02*
Y5863500D01*
X2627000D01*
Y5228500D01*
X2119000D01*
G01X2320120Y5196420D02*
X2310470Y5202770D01*
X2299210Y5207000D01*
X2286340D01*
X2271860Y5200650D01*
X2260600Y5190070D01*
X2252560Y5177370D01*
X2246120Y5156200D01*
X2244510Y5137150D01*
X2247730Y5118100D01*
X2252560Y5105400D01*
X2262210Y5092700D01*
X2273470Y5084230D01*
X2284730Y5080000D01*
X2295990D01*
X2307250Y5084230D01*
X2316900Y5090580D01*
X2324950Y5099050D01*
G01X2378880Y5105400D02*
X2388530Y5090580D01*
X2401400Y5082120D01*
X2415880Y5080000D01*
X2428750Y5082120D01*
X2441620Y5092700D01*
X2449660Y5105400D01*
X2451270Y5118100D01*
X2448050Y5132910D01*
X2436790Y5143500D01*
X2425530Y5147730D01*
X2411050D01*
G01X2425530D02*
X2435180Y5154080D01*
X2443230Y5164660D01*
X2446440Y5177370D01*
X2443230Y5190070D01*
X2435180Y5200650D01*
X2420700Y5207000D01*
X2406230Y5204880D01*
X2391750Y5196420D01*
G01X2058460Y6020980D02*
X2098680Y5893980D01*
X2138900Y6020980D01*
G01X2196050Y5893980D02*
Y6020980D01*
X2236260D01*
X2249130Y6014630D01*
X2257180Y6006160D01*
X2260390Y5989230D01*
X2257180Y5972300D01*
X2247520Y5961710D01*
X2236260Y5955360D01*
X2196050D01*
G01X2236260D02*
X2260390Y5893980D01*
G01X2357760D02*
Y6020980D01*
X2338460Y5995580D01*
G01Y5893980D02*
X2377060D01*
G01X3328840Y1841500D02*
Y1750480D01*
X3335270Y1731430D01*
X3348140Y1718730D01*
X3364230Y1714500D01*
X3380320Y1718730D01*
X3393190Y1731430D01*
X3399620Y1750480D01*
Y1841500D01*
G01X3458380Y1739900D02*
X3468030Y1725080D01*
X3480900Y1716620D01*
X3495380Y1714500D01*
X3508250Y1716620D01*
X3521120Y1727200D01*
X3529160Y1739900D01*
X3530770Y1752600D01*
X3527550Y1767410D01*
X3516290Y1778000D01*
X3505030Y1782230D01*
X3490550D01*
G01X3505030D02*
X3514680Y1788580D01*
X3522730Y1799160D01*
X3525940Y1811870D01*
X3522730Y1824570D01*
X3514680Y1835150D01*
X3500200Y1841500D01*
X3485730Y1839380D01*
X3471250Y1830920D01*
G01X3203790Y2984500D02*
Y3063240D01*
X3228130D01*
X3235920Y3059300D01*
X3240790Y3054050D01*
X3242730Y3043550D01*
X3240790Y3033060D01*
X3234940Y3026500D01*
X3228130Y3022560D01*
X3203790D01*
G01X3228130D02*
X3242730Y2984500D01*
G01X3302000D02*
Y3063240D01*
X3290320Y3047490D01*
G01Y2984500D02*
X3313680D01*
G01X3380740Y3063240D02*
X3372950Y3060620D01*
X3367110Y3054050D01*
X3363210Y3046180D01*
X3360290Y3035680D01*
X3359320Y3023870D01*
X3360290Y3012060D01*
X3363210Y3001560D01*
X3367110Y2993680D01*
X3372950Y2987120D01*
X3380740Y2984500D01*
X3388530Y2987120D01*
X3394370Y2993680D01*
X3398270Y3001560D01*
X3401190Y3012060D01*
X3402160Y3023870D01*
X3401190Y3035680D01*
X3398270Y3046180D01*
X3394370Y3054050D01*
X3388530Y3060620D01*
X3380740Y3063240D01*
G01X3252400Y2927000D02*
X3963600D01*
Y2673000D01*
X3252400D01*
Y2927000D01*
G01X2759290Y4191000D02*
Y4269740D01*
X2783630D01*
X2791420Y4265800D01*
X2796290Y4260550D01*
X2798230Y4250050D01*
X2796290Y4239560D01*
X2790440Y4233000D01*
X2783630Y4229060D01*
X2759290D01*
G01X2783630D02*
X2798230Y4191000D01*
G01X2857500D02*
Y4269740D01*
X2845820Y4253990D01*
G01Y4191000D02*
X2869180D01*
G01X2936240D02*
X2943060Y4192310D01*
X2950840Y4196250D01*
X2955710Y4202810D01*
X2957660Y4212000D01*
X2955710Y4221180D01*
X2949870Y4229060D01*
X2941110Y4233000D01*
X2931370D01*
X2925530Y4235620D01*
X2920660Y4242180D01*
X2918710Y4251370D01*
X2921640Y4260550D01*
X2928450Y4267120D01*
X2936240Y4269740D01*
X2944030Y4267120D01*
X2950840Y4260550D01*
X2953770Y4251370D01*
X2951820Y4242180D01*
X2946950Y4235620D01*
X2941110Y4233000D01*
X2931370D01*
X2922610Y4229060D01*
X2916770Y4221180D01*
X2914820Y4212000D01*
X2916770Y4202810D01*
X2921640Y4196250D01*
X2929420Y4192310D01*
X2936240Y4191000D01*
G01X3175000Y4660900D02*
Y5372100D01*
X3429000D01*
Y4660900D01*
X3175000D01*
G01X2927000Y5127000D02*
Y4619000D01*
X2673000D01*
Y5127000D01*
X2927000D01*
G01X3018620Y5132920D02*
X3008970Y5139270D01*
X2997710Y5143500D01*
X2984840D01*
X2970360Y5137150D01*
X2959100Y5126570D01*
X2951060Y5113870D01*
X2944620Y5092700D01*
X2943010Y5073650D01*
X2946230Y5054600D01*
X2951060Y5041900D01*
X2960710Y5029200D01*
X2971970Y5020730D01*
X2983230Y5016500D01*
X2994490D01*
X3005750Y5020730D01*
X3015400Y5027080D01*
X3023450Y5035550D01*
G01X3132070Y5016500D02*
Y5143500D01*
X3072550Y5052480D01*
X3152990D01*
G01X3252400Y5927000D02*
X3963600D01*
Y5673000D01*
X3252400D01*
Y5927000D01*
G01X3573000Y1701600D02*
Y1854000D01*
X3636500Y1917500D01*
Y2044500D01*
X3573000Y2108000D01*
Y2260400D01*
X4589000D01*
Y1701600D01*
X3573000D01*
G01X3473000Y3552400D02*
Y4263600D01*
X3727000D01*
Y3552400D01*
X3473000D01*
G01X4001600Y5427000D02*
X4154000D01*
X4217500Y5363500D01*
X4344500D01*
X4408000Y5427000D01*
X4560400D01*
Y4411000D01*
X4001600D01*
Y5427000D01*
G01X3751160Y4191000D02*
Y4269740D01*
X3775500D01*
X3783290Y4265800D01*
X3788160Y4260550D01*
X3790100Y4250050D01*
X3788160Y4239560D01*
X3782310Y4233000D01*
X3775500Y4229060D01*
X3751160D01*
G01X3775500D02*
X3790100Y4191000D01*
G01X3832820Y4200180D02*
X3839630Y4193620D01*
X3847420Y4191000D01*
X3855210Y4193620D01*
X3862030Y4201500D01*
X3866900Y4213310D01*
X3868840Y4225120D01*
Y4239560D01*
X3866900Y4251370D01*
X3862030Y4261870D01*
X3856190Y4267120D01*
X3849370Y4269740D01*
X3841580Y4267120D01*
X3835740Y4261870D01*
X3831840Y4253990D01*
X3829900Y4243490D01*
X3831840Y4234310D01*
X3836710Y4225120D01*
X3842550Y4219870D01*
X3849370Y4218560D01*
X3857160Y4221180D01*
X3863000Y4227740D01*
X3868840Y4239560D01*
G01X3451440Y5130800D02*
Y5209540D01*
X3475780D01*
X3483570Y5205600D01*
X3488440Y5200350D01*
X3490380Y5189850D01*
X3488440Y5179360D01*
X3482590Y5172800D01*
X3475780Y5168860D01*
X3451440D01*
G01X3475780D02*
X3490380Y5130800D01*
G01X3528230Y5146550D02*
X3534070Y5137360D01*
X3541860Y5132110D01*
X3550620Y5130800D01*
X3558410Y5132110D01*
X3566200Y5138670D01*
X3571070Y5146550D01*
X3572040Y5154420D01*
X3570100Y5163610D01*
X3563280Y5170170D01*
X3556470Y5172800D01*
X3547700D01*
G01X3556470D02*
X3562310Y5176730D01*
X3567180Y5183290D01*
X3569120Y5191170D01*
X3567180Y5199040D01*
X3562310Y5205600D01*
X3553540Y5209540D01*
X3544780Y5208230D01*
X3536020Y5202980D01*
G01X3814660Y5524500D02*
Y5603240D01*
X3839000D01*
X3846790Y5599300D01*
X3851660Y5594050D01*
X3853600Y5583550D01*
X3851660Y5573060D01*
X3845810Y5566500D01*
X3839000Y5562560D01*
X3814660D01*
G01X3839000D02*
X3853600Y5524500D01*
G01X3894370Y5590120D02*
X3900210Y5597990D01*
X3907030Y5601930D01*
X3914820Y5603240D01*
X3924550Y5600620D01*
X3931370Y5594050D01*
X3933320Y5586180D01*
X3932340Y5578300D01*
X3928450Y5571740D01*
X3908980Y5558620D01*
X3900210Y5549430D01*
X3894370Y5536310D01*
X3892420Y5524500D01*
X3933320D01*
G01X4473000Y3152400D02*
Y3863600D01*
X4727000D01*
Y3152400D01*
X4473000D01*
G01X4219790Y3810000D02*
Y3888740D01*
X4244130D01*
X4251920Y3884800D01*
X4256790Y3879550D01*
X4258730Y3869050D01*
X4256790Y3858560D01*
X4250940Y3852000D01*
X4244130Y3848060D01*
X4219790D01*
G01X4244130D02*
X4258730Y3810000D01*
G01X4318000D02*
Y3888740D01*
X4306320Y3872990D01*
G01Y3810000D02*
X4329680D01*
G01X4378240Y3875620D02*
X4384080Y3883490D01*
X4390900Y3887430D01*
X4398690Y3888740D01*
X4408420Y3886120D01*
X4415240Y3879550D01*
X4417190Y3871680D01*
X4416210Y3863800D01*
X4412320Y3857240D01*
X4392850Y3844120D01*
X4384080Y3834930D01*
X4378240Y3821810D01*
X4376290Y3810000D01*
X4417190D01*
G01X4805680Y5282220D02*
Y5191200D01*
X4812110Y5172150D01*
X4824980Y5159450D01*
X4841070Y5155220D01*
X4857160Y5159450D01*
X4870030Y5172150D01*
X4876460Y5191200D01*
Y5282220D01*
G01X4935220Y5174270D02*
X4944870Y5163680D01*
X4956130Y5157340D01*
X4970610Y5155220D01*
X4985090Y5159450D01*
X4996350Y5167920D01*
X5004390Y5182730D01*
X5006000Y5199670D01*
X5002780Y5216600D01*
X4994740Y5227190D01*
X4983480Y5235650D01*
X4972220Y5237770D01*
X4960960Y5235650D01*
X4946480Y5227190D01*
X4951310Y5282220D01*
X4994740D01*
G01X5291240Y5016500D02*
X5331460Y4889500D01*
X5371680Y5016500D01*
G01X5428830Y4889500D02*
Y5016500D01*
X5469040D01*
X5481910Y5010150D01*
X5489960Y5001680D01*
X5493170Y4984750D01*
X5489960Y4967820D01*
X5480300Y4957230D01*
X5469040Y4950880D01*
X5428830D01*
G01X5469040D02*
X5493170Y4889500D01*
G01X5559970Y4995330D02*
X5569630Y5008030D01*
X5580890Y5014380D01*
X5593760Y5016500D01*
X5609840Y5012270D01*
X5621110Y5001680D01*
X5624320Y4988990D01*
X5622710Y4976280D01*
X5616280Y4965700D01*
X5584110Y4944530D01*
X5569630Y4929720D01*
X5559970Y4908550D01*
X5556760Y4889500D01*
X5624320D01*
G01X5971500Y4319000D02*
X5336500D01*
Y4827000D01*
X5971500D01*
Y4319000D01*
G01X6313340Y1968500D02*
Y1877480D01*
X6319770Y1858430D01*
X6332640Y1845730D01*
X6348730Y1841500D01*
X6364820Y1845730D01*
X6377690Y1858430D01*
X6384120Y1877480D01*
Y1968500D01*
G01X6497570Y1841500D02*
Y1968500D01*
X6438050Y1877480D01*
X6518490D01*
G01X5870790Y3175000D02*
Y3253740D01*
X5895130D01*
X5902920Y3249800D01*
X5907790Y3244550D01*
X5909730Y3234050D01*
X5907790Y3223560D01*
X5901940Y3217000D01*
X5895130Y3213060D01*
X5870790D01*
G01X5895130D02*
X5909730Y3175000D01*
G01X5969000D02*
Y3253740D01*
X5957320Y3237990D01*
G01Y3175000D02*
X5980680D01*
G01X6047740D02*
Y3253740D01*
X6036060Y3237990D01*
G01Y3175000D02*
X6059420D01*
G01X5852400Y3127000D02*
X6563600D01*
Y2873000D01*
X5852400D01*
Y3127000D01*
G01X6373000Y4752400D02*
Y5463600D01*
X6627000D01*
Y4752400D01*
X6373000D01*
G01X6573000Y1801600D02*
Y1954000D01*
X6636500Y2017500D01*
Y2144500D01*
X6573000Y2208000D01*
Y2360400D01*
X7589000D01*
Y1801600D01*
X6573000D01*
G01X7481000Y4071500D02*
Y3436500D01*
X6973000D01*
Y4071500D01*
X7481000D01*
G01X7101600Y5327000D02*
X7254000D01*
X7317500Y5263500D01*
X7444500D01*
X7508000Y5327000D01*
X7660400D01*
Y4311000D01*
X7101600D01*
Y5327000D01*
G01X6649440Y5222300D02*
Y5301040D01*
X6673780D01*
X6681570Y5297100D01*
X6686440Y5291850D01*
X6688380Y5281350D01*
X6686440Y5270860D01*
X6680590Y5264300D01*
X6673780Y5260360D01*
X6649440D01*
G01X6673780D02*
X6688380Y5222300D01*
G01X6759330D02*
Y5301040D01*
X6723310Y5244610D01*
X6771990D01*
G01X7052400Y5727000D02*
X7763600D01*
Y5473000D01*
X7052400D01*
Y5727000D01*
G01X7053160Y5778500D02*
Y5857240D01*
X7077500D01*
X7085290Y5853300D01*
X7090160Y5848050D01*
X7092100Y5837550D01*
X7090160Y5827060D01*
X7084310Y5820500D01*
X7077500Y5816560D01*
X7053160D01*
G01X7077500D02*
X7092100Y5778500D01*
G01X7151370D02*
Y5857240D01*
X7139690Y5841490D01*
G01Y5778500D02*
X7163050D01*
G01X7513740Y4064000D02*
X7553960Y3937000D01*
X7594180Y4064000D01*
G01X7651330Y3937000D02*
Y4064000D01*
X7691540D01*
X7704410Y4057650D01*
X7712460Y4049180D01*
X7715670Y4032250D01*
X7712460Y4015320D01*
X7702800Y4004730D01*
X7691540Y3998380D01*
X7651330D01*
G01X7691540D02*
X7715670Y3937000D01*
G01X7777650Y3962400D02*
X7787300Y3947580D01*
X7800170Y3939120D01*
X7814650Y3937000D01*
X7827520Y3939120D01*
X7840390Y3949700D01*
X7848430Y3962400D01*
X7850040Y3975100D01*
X7846820Y3989910D01*
X7835560Y4000500D01*
X7824300Y4004730D01*
X7809820D01*
G01X7824300D02*
X7833950Y4011080D01*
X7842000Y4021660D01*
X7845210Y4034370D01*
X7842000Y4047070D01*
X7833950Y4057650D01*
X7819470Y4064000D01*
X7805000Y4061880D01*
X7790520Y4053420D01*
G01X7905680Y5182220D02*
Y5091200D01*
X7912110Y5072150D01*
X7924980Y5059450D01*
X7941070Y5055220D01*
X7957160Y5059450D01*
X7970030Y5072150D01*
X7976460Y5091200D01*
Y5182220D01*
G01X8040040Y5161050D02*
X8049700Y5173750D01*
X8060960Y5180100D01*
X8073830Y5182220D01*
X8089910Y5177990D01*
X8101180Y5167400D01*
X8104390Y5154710D01*
X8102780Y5142000D01*
X8096350Y5131420D01*
X8064180Y5110250D01*
X8049700Y5095440D01*
X8040040Y5074270D01*
X8036830Y5055220D01*
X8104390D01*
G01X9373000Y3627000D02*
X9627000D01*
Y3119000D01*
X9373000D01*
Y3627000D01*
G01X9655450Y3629960D02*
X9647570Y3625090D01*
X9642320Y3619250D01*
X9639700Y3612440D01*
X9642320Y3604650D01*
X9647570Y3598810D01*
X9655450Y3592960D01*
X9665950Y3591020D01*
X9718440D01*
G01X9705320Y3550250D02*
X9713190Y3544410D01*
X9717130Y3537590D01*
X9718440Y3529800D01*
X9715820Y3520070D01*
X9709250Y3513250D01*
X9701380Y3511300D01*
X9693500Y3512280D01*
X9686940Y3516170D01*
X9673820Y3535640D01*
X9664630Y3544410D01*
X9651510Y3550250D01*
X9639700Y3552200D01*
Y3511300D01*
M02*
