G04 ================== begin FILE IDENTIFICATION RECORD ==================*
G04 Layout Name:  C:/USERS/USER/DESKTOP/WORK/7.31/allegro/7_31EX.brd*
G04 Film Name:    TOP*
G04 File Format:  Gerber RS274X*
G04 File Origin:  Cadence Allegro 17.2-P019*
G04 Origin Date:  Wed Jul 31 12:24:20 2019*
G04 *
G04 Layer:  ETCH/TOP*
G04 Layer:  PIN/TOP*
G04 Layer:  VIA CLASS/TOP*
G04 *
G04 Offset:    (0.0000 0.0000)*
G04 Mirror:    No*
G04 Mode:      Positive*
G04 Rotation:  0*
G04 FullContactRelief:  No*
G04 UndefLineWidth:     0.0000*
G04 ================== end FILE IDENTIFICATION RECORD ====================*
%FSLAX25Y25*MOMM*%
%IR0*IPPOS*OFA0.00000B0.00000*MIA0B0*SFA1.00000B1.00000*%
%ADD10C,.635*%
%ADD12C,1.524*%
%ADD11C,1.651*%
%ADD13R,1.524X1.524*%
%ADD14C,.5*%
%ADD15C,1.*%
G75*
%LPD*%
G75*
G54D10*
X500000Y500000D03*
Y6500000D03*
X9500000Y500000D03*
Y6500000D03*
G54D11*
X1100000Y3000000D03*
Y4016000D03*
X1500000Y3000000D03*
X1900000D03*
X1500000Y4016000D03*
X1900000D03*
X1500000Y4746000D03*
Y5000000D03*
X1300000Y5654000D03*
Y5400000D03*
X2600000Y3400000D03*
Y4416000D03*
X2100000Y4746000D03*
Y5000000D03*
X3100000Y2800000D03*
X3302000Y4508500D03*
X2800000Y4746000D03*
Y5000000D03*
X3302000Y5524500D03*
X3100000Y5800000D03*
X4116000Y2800000D03*
X3600000Y3400000D03*
Y4416000D03*
X4116000Y5800000D03*
X4600000Y3000000D03*
Y4016000D03*
X5700000Y3000000D03*
X6500000Y4600000D03*
Y5616000D03*
X6716000Y3000000D03*
X6900000Y5600000D03*
X7916000D03*
G54D12*
X500000Y2992000D03*
Y3246000D03*
Y3500000D03*
X2500000Y5292000D03*
X2246000Y5546000D03*
X2500000Y5800000D03*
X4208000Y1600000D03*
X3954000D03*
X4208000Y2362000D03*
X3954000D03*
X3700000D03*
X3900000Y4538000D03*
Y4792000D03*
Y5046000D03*
X4462000Y1600000D03*
Y2362000D03*
X4662000Y4538000D03*
Y4792000D03*
Y5046000D03*
Y5300000D03*
X5654000Y4446000D03*
X5400000Y4700000D03*
X5908000D03*
X7208000Y1700000D03*
X6954000D03*
X7208000Y2462000D03*
X6954000D03*
X6700000D03*
X7100000Y4008000D03*
Y3500000D03*
X7000000Y4438000D03*
Y4692000D03*
Y4946000D03*
X7462000Y1700000D03*
Y2462000D03*
X7354000Y3754000D03*
X7762000Y4438000D03*
Y4692000D03*
Y4946000D03*
Y5200000D03*
X9500000Y3246000D03*
Y3500000D03*
G54D13*
X3700000Y1600000D03*
X3900000Y5300000D03*
X6700000Y1700000D03*
X7000000Y5200000D03*
G54D14*
G01X1100000Y4016000D02*
X1185040Y4101040D01*
Y4104700D01*
X1329750Y4249410D01*
Y4829750D01*
X1500000Y5000000D01*
G01Y4746000D02*
Y4016000D01*
G01X1300000Y5400000D02*
Y5200000D01*
X1500000Y5000000D01*
G01X2100000Y4746000D02*
Y4625740D01*
X2095840Y4621580D01*
Y4066000D01*
X2045840Y4016000D01*
X1900000D01*
G01X2600000Y4416000D02*
X2800000Y4616000D01*
Y4746000D01*
G01X2246000Y5546000D02*
X2500000Y5292000D01*
G01X3954000Y1600000D02*
Y1383500D01*
X3904000Y1333500D01*
X3542500D01*
X3492500Y1383500D01*
Y2407500D01*
X3100000Y2800000D01*
G01X3232950Y2932950D02*
X3100000Y2800000D01*
G01X7762000Y4692000D02*
X7628000Y4826000D01*
X7059050D01*
X7052450Y4819400D01*
X6914900D01*
X6477000Y4381500D01*
Y4318000D01*
X5969000Y3810000D01*
X4889500D01*
X3879500Y2800000D01*
X3100000D01*
G01X3302000Y4508500D02*
X3037500D01*
X2800000Y4746000D01*
G01X3900000Y5046000D02*
X3980140D01*
X4001460Y5024680D01*
Y4953960D01*
X3966100Y4918600D01*
X3780900D01*
X3302000Y5397500D01*
Y5524500D01*
G01X4116000Y2800000D02*
Y2454000D01*
X4208000Y2362000D01*
G01X4600000Y3000000D02*
X4316000D01*
X4116000Y2800000D01*
G01X3600000Y4416000D02*
X3745000Y4561000D01*
Y4637000D01*
X3900000Y4792000D01*
G01X4116000Y5800000D02*
X3746500Y5430500D01*
Y5085600D01*
X3786100Y5046000D01*
X3900000D01*
G01X5700000Y3000000D02*
X5794020Y2905980D01*
Y2859980D01*
X6954000Y1700000D01*
G01X6716000Y3000000D02*
X7118480Y2597520D01*
Y2551520D01*
X7208000Y2462000D01*
G01X6921490Y3111500D02*
X6900040Y3132950D01*
G01X6716000Y3000000D02*
X6855180D01*
X7188180Y2667000D01*
X9271000D01*
X9373400Y2769400D01*
Y3373400D01*
X9500000Y3500000D01*
G01X7354000Y3754000D02*
X7226600Y3881400D01*
Y4060450D01*
X7175500Y4111550D01*
Y4516500D01*
X7000000Y4692000D01*
G01X6900000Y5600000D02*
Y5479740D01*
X6858000Y5437740D01*
Y5088000D01*
X7000000Y4946000D01*
G01X7620000Y3161500D02*
X7570000Y3111500D01*
G01X7762000Y4692000D02*
X7712000D01*
G01X7916000Y5600000D02*
Y4846000D01*
X7762000Y4692000D01*
G54D15*
G01X1100000Y3000000D02*
X894000Y2794000D01*
X483590D01*
X348400Y2929190D01*
Y3094400D01*
X500000Y3246000D01*
G01Y2992000D02*
X1065950Y3557950D01*
X2965340D01*
X3792800Y4385410D01*
Y4430800D01*
X3900000Y4538000D01*
G01X7100000Y4008000D02*
X7000000Y4108000D01*
Y4438000D01*
M02*
